<?xml version="1.0" encoding="utf-8"?>
<!-- Generator: Adobe Illustrator 25.0.0, SVG Export Plug-In . SVG Version: 6.00 Build 0)  -->
<svg version="1.1" id="Layer_1" xmlns="http://www.w3.org/2000/svg" xmlns:xlink="http://www.w3.org/1999/xlink" x="0px" y="0px"
	 width="24px" height="24px" viewBox="0 0 24 24" enable-background="new 0 0 24 24" xml:space="preserve">
<g>
	<g>
		<rect x="11.5" y="0.6" width="1" height="4.3"/>
		<path fill="#FFFFFF" d="M12.5,0.6v4.3h-1V0.6H12.5 M13.1,0h-0.6h-1h-0.6v0.6v4.3v0.6h0.6h1h0.6V4.9V0.6V0L13.1,0z"/>
	</g>
	<g>
		<rect x="11.5" y="19.1" width="1" height="4.3"/>
		<path fill="#FFFFFF" d="M12.5,19.1v4.3h-1v-4.3H12.5 M13.1,18.6h-0.6h-1h-0.6v0.6v4.3V24h0.6h1h0.6v-0.6v-4.3V18.6L13.1,18.6z"/>
	</g>
	<g>
		<rect x="5" y="3.3" transform="matrix(0.7071 -0.7071 0.7071 0.7071 -2.2369 5.469)" width="1" height="4.3"/>
		<path fill="#FFFFFF" d="M4.3,3.6l3,3L6.7,7.3l-3-3L4.3,3.6 M4.3,2.8L3.9,3.2L3.2,3.9L2.8,4.3l0.4,0.4l3,3l0.4,0.4l0.4-0.4L7.7,7
			l0.4-0.4L7.7,6.2l-3-3L4.3,2.8L4.3,2.8z"/>
	</g>
	<g>
		<polygon points="16.8,17.4 19.7,20.4 20.5,19.7 17.4,16.7 		"/>
		<path fill="#FFFFFF" d="M17.4,16.7l3,3l-0.8,0.7l-2.9-3L17.4,16.7 M17.4,15.9L17,16.3L16.4,17L16,17.4l0.4,0.4l2.9,3l0.4,0.4
			l0.4-0.4l0.8-0.7l0.5-0.4l-0.4-0.4l-3-3L17.4,15.9L17.4,15.9z"/>
	</g>
	<g>
		<rect x="0.6" y="11.5" width="4.3" height="1.2"/>
		<path fill="#FFFFFF" d="M4.9,11.5v1.2H0.6v-1.2H4.9 M5.5,10.9H4.9H0.6H0v0.6v1.2v0.6h0.6h4.3h0.6v-0.6v-1.2V10.9L5.5,10.9z"/>
	</g>
	<g>
		<rect x="19.2" y="11.5" width="4.2" height="1.2"/>
		<path fill="#FFFFFF" d="M23.4,11.5v1.2h-4.2v-1.2H23.4 M24,10.9h-0.6h-4.2h-0.6v0.6v1.2v0.6h0.6h4.2H24v-0.6v-1.2V10.9L24,10.9z"
			/>
	</g>
	<g>
		<rect x="3.4" y="18.1" transform="matrix(0.7071 -0.7071 0.7071 0.7071 -11.5219 9.3152)" width="4.3" height="1"/>
		<path fill="#FFFFFF" d="M6.7,16.7l0.7,0.7l-3,3l-0.7-0.7L6.7,16.7 M6.7,15.9l-0.4,0.4l-3,3l-0.4,0.4l0.4,0.4l0.7,0.7l0.4,0.4
			l0.4-0.4l3-3l0.4-0.4L7.7,17l-0.7-0.7L6.7,15.9L6.7,15.9z"/>
	</g>
	<g>
		<polygon points="20.5,4.3 19.7,3.6 16.8,6.6 17.4,7.3 		"/>
		<path fill="#FFFFFF" d="M19.7,3.6l0.8,0.7l-3,3l-0.7-0.7L19.7,3.6 M19.7,2.8l-0.4,0.4l-2.9,3L16,6.6L16.4,7L17,7.7l0.4,0.4
			l0.4-0.4l3-3l0.4-0.4l-0.5-0.4l-0.8-0.7L19.7,2.8L19.7,2.8z"/>
	</g>
	<g>
		<circle cx="12" cy="12" r="5.1"/>
		<path fill="#FFFFFF" d="M12,6.9c2.8,0,5.1,2.3,5.1,5.1s-2.3,5.1-5.1,5.1S6.9,14.8,6.9,12S9.2,6.9,12,6.9 M12,6.3
			c-3.2,0-5.7,2.6-5.7,5.7s2.6,5.7,5.7,5.7s5.7-2.6,5.7-5.7S15.2,6.3,12,6.3L12,6.3z"/>
	</g>
</g>
</svg>
