<?xml version="1.0" encoding="utf-8"?>
<!-- Generator: Adobe Illustrator 23.0.1, SVG Export Plug-In . SVG Version: 6.00 Build 0)  -->
<svg version="1.1" id="Layer_1" xmlns="http://www.w3.org/2000/svg" xmlns:xlink="http://www.w3.org/1999/xlink" x="0px" y="0px"
	 viewBox="0 0 500 500" style="enable-background:new 0 0 500 500;" xml:space="preserve">
<style type="text/css">
	.st0{fill:none;stroke:#231F20;stroke-width:2;stroke-miterlimit:10;}
	.st1{fill:#231F20;}
</style>
<g>
	
		<ellipse transform="matrix(0.1639 -0.9865 0.9865 0.1639 71.9007 367.4438)" class="st0" cx="252.72" cy="141.31" rx="7.27" ry="5.17"/>
	<polyline class="st0" points="252.75,163.74 262.1,162.06 269.31,156.34 271.22,152.86 271.84,149.17 276.4,152.61 279.73,158.07 
		285.52,162.16 292.12,161.41 295.08,153.03 294.44,146.12 290.29,142.86 285.51,139.39 280.34,136.97 274,137.48 273.57,134.72 
		273.89,130.09 271.13,122.49 267.91,120.39 267.26,116.27 268.45,106.42 267.76,97.15 263.7,88 261.85,86.35 258.27,85.76 	"/>
	<polyline class="st0" points="260.68,116.07 261.03,102.73 260.55,94.17 257.14,83.11 255.08,79.42 250.3,78.63 248.16,79.39 
		247.51,83.3 	"/>
	<polyline class="st0" points="251.73,115.7 252.71,108.05 251.5,95.57 250.67,87.17 245.38,81.38 241.11,82.91 236.55,88.84 
		235.76,100.32 234.5,118.64 230.56,124.9 227.8,130.78 227.53,144.59 234.19,156.75 238.77,161.42 245.51,162.54 	"/>
	<polyline class="st0" points="237.47,161.2 236.52,166.96 240.79,169.45 247.85,170.63 253.93,170.24 255.63,170.14 261.2,167.49 
		262.1,162.06 	"/>
	<path class="st1" d="M239.83,168.9l-1.04,6.25l-2.38,14.34l-0.38,18.91l-0.18,12.25l2.99,26.83c0,0,1.36,7.14,2.5,9.37
		c1.59,3.11,2.42,4.56,8.2,5.53c4.35,0.72,8.03-2.69,9.02-5.04c1-2.35,0.6-7.63-0.43-9.59c-1.04-1.96-4.2-7.93-4.2-7.93l-4.15-15.73
		l-1.57-11.2l2.09-25.54l2.26-13.63l1.35-3.46"/>
</g>
</svg>
