<?xml version="1.0" encoding="utf-8"?>
<!-- Generator: Adobe Illustrator 23.0.1, SVG Export Plug-In . SVG Version: 6.00 Build 0)  -->
<svg version="1.1" id="Layer_1" xmlns="http://www.w3.org/2000/svg" xmlns:xlink="http://www.w3.org/1999/xlink" x="0px" y="0px"
	 viewBox="0 0 500 500" style="enable-background:new 0 0 500 500;" xml:space="preserve">
<style type="text/css">
	.st0{fill:none;stroke:#231F20;stroke-width:2;stroke-miterlimit:10;}
	.st1{fill:#231F20;}
</style>
<polyline class="st0" points="241.36,145.32 232.62,144.5 220.06,133.37 220.57,130.19 221.52,124.19 225.48,117.37 "/>
<polyline class="st0" points="242.05,106.62 238.93,103.27 231.26,100.41 223.26,102.56 217,109.95 216,124.64 220.31,131.82 "/>
<polyline class="st0" points="229.86,100.79 235.82,95.23 242.5,96.75 249.31,98.3 252.55,101.78 255.32,106.77 "/>
<polyline class="st0" points="254.68,145.35 261.34,142.76 268.75,130.85 266.39,109.59 260.14,87.43 258.02,62.67 256.14,56.29 
	252.18,53.72 248.15,53.41 244.18,55.54 241.76,59.99 241.16,67.74 243.2,78.66 243.84,96.4 "/>
<polyline class="st0" points="235.51,144.77 232.93,147.18 234.51,150.55 238.93,153.62 250.61,153.06 254.49,152.9 254.5,152.9 
	256.93,152.8 260.35,147.74 258.53,144.12 "/>
<path class="st1" d="M258.01,250.95c0.98-3.92-1.39-12.31-1.39-12.31l-5.79-27.61l-0.6-24.14l4.28-33.98l-0.01,0l-13.35,0.61
	l-4.71,24.95l-1.93,27.13l3.29,19.55l4.89,22.03c0,0,1.98,6.78,3.54,8.33c1.82,1.8,3.78,3.4,7.19,1.91
	C255.62,256.44,257.03,254.87,258.01,250.95z"/>
<path class="st0" d="M248.76,121.07c0,0,1.18,8.95-0.6,11.91"/>
<path class="st0" d="M255.6,121.3c0,0-0.16,9.03-2.35,11.69"/>
<path class="st0" d="M260.45,122.86c0,0-0.69,9-3.04,11.53"/>
</svg>
