<?xml version="1.0" encoding="utf-8"?>
<!-- Generator: Adobe Illustrator 23.0.1, SVG Export Plug-In . SVG Version: 6.00 Build 0)  -->
<svg version="1.1" id="Layer_1" xmlns="http://www.w3.org/2000/svg" xmlns:xlink="http://www.w3.org/1999/xlink" x="0px" y="0px"
	 viewBox="0 0 500 500" style="enable-background:new 0 0 500 500;" xml:space="preserve">
<style type="text/css">
	.st0{fill:#231F20;}
</style>
<path class="st0" d="M258.06,225.65c-0.15-8.45-0.78-16.79-1.66-25.09c-0.88-8.3-2.01-16.54-3.35-24.75
	c-1.35-8.21-2.9-16.38-4.78-24.48c-0.47-2.02-0.97-4.05-1.5-6.06c-0.47-2-0.9-4-1.28-6.01c-0.76-4.03-1.33-8.1-1.75-12.19
	c-0.4-3.81-0.66-7.64-0.81-11.48c-0.73-26.89,4.06-52.84,8.52-61.36l-0.89-0.47c0-0.01,0.01-0.02,0.01-0.02
	c0,0.01-0.01,0.02-0.01,0.02l-0.88-0.46c-6.24,11.92-13.16,57.13-5.29,92.29c0.14,0.61,0.28,1.25,0.41,1.9
	c0.26,1.46,0.52,2.91,0.75,4.37c1.28,8.13,2.22,16.32,2.96,24.52c0.74,8.2,1.25,16.41,1.52,24.62c0.26,8.2,0.29,16.4-0.17,24.49
	c-0.23,4.04-0.58,8.05-1.18,11.94c-0.3,1.94-0.65,3.85-1.11,5.67c-0.45,1.81-1.01,3.55-1.68,4.98c-0.05,0.12-0.11,0.24-0.15,0.36
	c-0.97,2.59,0.33,5.47,2.92,6.45c2.59,0.97,5.47-0.33,6.45-2.92l0.01-0.03c0.91-2.4,1.41-4.67,1.8-6.91
	c0.38-2.23,0.62-4.41,0.79-6.58C258.07,234.13,258.13,229.88,258.06,225.65z"/>
</svg>
